<?xml version="1.0" encoding="UTF-8"?>
<!DOCTYPE svg PUBLIC "-//W3C//DTD SVG 1.1//EN" "http://www.w3.org/Graphics/SVG/1.1/DTD/svg11.dtd">
<!-- Creator: CorelDRAW -->
<svg xmlns="http://www.w3.org/2000/svg" xml:space="preserve" width="50mm" height="20mm" version="1.1" style="shape-rendering:geometricPrecision; text-rendering:geometricPrecision; image-rendering:optimizeQuality; fill-rule:evenodd; clip-rule:evenodd"
viewBox="0 0 5000 2000"
 xmlns:xlink="http://www.w3.org/1999/xlink"
 xmlns:xodm="http://www.corel.com/coreldraw/odm/2003">
 <defs>
  <style type="text/css">
   <![CDATA[
    .fil3 {fill:#FEFEFE}
    .fil4 {fill:#332C2B}
    .fil2 {fill:#E62129}
    .fil0 {fill:#332C2B;fill-rule:nonzero}
    .fil1 {fill:#E62129;fill-rule:nonzero}
    .fil5 {fill:url(#id0)}
   ]]>
  </style>
  <linearGradient id="id0" gradientUnits="userSpaceOnUse" x1="2924.5" y1="598.26" x2="4683.29" y2="1318.69">
   <stop offset="0" style="stop-opacity:1; stop-color:#E62129"/>
   <stop offset="0.270588" style="stop-opacity:1; stop-color:#FDD100"/>
   <stop offset="0.580392" style="stop-opacity:1; stop-color:#E62129"/>
   <stop offset="0.760784" style="stop-opacity:1; stop-color:#FDD100"/>
   <stop offset="1" style="stop-opacity:1; stop-color:#E62129"/>
  </linearGradient>
 </defs>
 <g id="Layer_x0020_1">
  <metadata id="CorelCorpID_0Corel-Layer"/>
  <g id="_2117580546640">
   <g>
    <path class="fil0" d="M1968.82 1364.23l-8.28 5.33 -189.15 0c-51.95,0 -94.48,-8.59 -127.61,-25.75 -34.03,-17.17 -51.03,-39.66 -51.03,-67.34 0,-40.41 47,-78.59 141.03,-114.7 93.13,-35.52 139.68,-62.75 139.68,-81.7 0,-10.5 -6.27,-19.98 -18.8,-28.26 -13.44,-7.7 -26.86,-11.55 -40.3,-11.55l-107.45 0c-15.22,0 -29.11,6.22 -41.86,18.65 -1.56,1.77 -4.25,5.03 -7.84,9.77l-10.74 -56.1c0,-2.22 0,-4.28 0,-6.21 -0.9,-5.93 0.89,-10.36 5.14,-13.32 5.6,-2.81 19.49,-4.29 41.64,-4.29l162.75 0c21.49,0 40.52,6.21 57.76,18.64 16.11,13.03 24.17,29.9 24.17,50.47l0 253.82c0,6.66 3.14,14.05 9.18,22.35 14.32,18.94 21.71,29.01 21.71,30.19zm-95.36 -46.03l0 -141.92 -12.08 -1.78c-32.24,0 -73.88,11.54 -125.13,34.48 -50.84,23.67 -76.35,45.58 -76.35,65.71 0,18.35 15.67,32.56 47.01,42.63 25.98,8.28 55.97,12.43 90.22,12.43 21.26,0 39.62,-1.19 55.06,-3.4 14.11,-1.78 21.27,-4.45 21.27,-8.15zm547.79 -172.42c0,38.48 -13.43,79.62 -40.3,123.43 -34.65,58.55 -70.04,98.56 -88.38,105.41 -18.35,6.85 -89.23,54.82 14.95,-116.21 24.86,-42.62 37.39,-80.21 37.39,-112.78 0,-35.07 -7.61,-62 -22.61,-80.95 -15.22,-18.36 -38.5,-27.52 -69.84,-27.52 -47.68,0 -86.18,10.06 -115.73,30.18 -29.55,20.14 -44.33,45.58 -44.33,76.37l0 172.57c0,5.33 4.93,13.31 14.78,23.97 8.96,10.65 13.43,21.32 13.43,31.97l-122.24 0c0,-13.62 5.38,-27.23 16.35,-40.7 5.14,-6.51 7.83,-11.69 7.83,-15.24l0 -394.42c0,-3.4 -4.02,-7.55 -12.08,-12.28 -8.07,-4.88 -12.1,-8.89 -12.1,-12.43 0,-2.97 13.88,-13.18 41.64,-30.35 26.87,-16.43 43.44,-24.72 49.94,-24.72 1.56,1.79 2.45,2.82 2.45,3.41 1.8,3.11 2.69,6.37 2.69,9.77l0 181.9c38.5,-33.61 87.3,-50.48 146.4,-50.48 57.08,0 101.41,14.8 132.52,44.4 31.57,29.75 47.24,67.93 47.24,114.7zm467.65 112.78c0,18.94 -20.6,41.14 -61.57,66.6 -47.67,29.59 -98.27,44.4 -151.78,44.4 -70.07,0 -123.79,-14.81 -161.4,-44.4 -37.61,-29.76 -56.41,-75.63 -56.41,-137.79 0,-59.79 18.8,-108.34 56.41,-145.63 36.72,-36.7 90.44,-55.06 161.4,-55.06 49.93,0 97.39,14.21 142.16,42.77 44.09,29.02 66.03,58.91 66.03,89.69 -2.01,2.97 -31.11,17.16 -87.74,42.63 -13.22,5.92 -64.7,28.41 -154.47,67.63 -27.76,12.44 -55.07,24.57 -81.94,36.26 0,9.48 11.2,19.68 33.81,30.34 21.49,10.51 46.11,15.84 73.87,15.84 47.46,0 82.84,-7.69 106.12,-22.94 23.28,-15.54 38.05,-38.04 44.32,-67.48l6.71 -6.38c5.38,0 17.46,6.52 36.27,19.54 18.8,13.03 28.21,21.02 28.21,23.98zm-95.37 -144c0,-11.25 -12.98,-26.64 -39.17,-46.19 -25.74,-18.93 -50.82,-28.4 -75,-28.4 -47.46,0 -85.52,12.43 -114.16,37.29 -28.66,25.46 -42.99,58.46 -42.99,98.86 0,14.06 1.8,25.75 5.15,34.63 2.68,8.89 7.17,13.32 13.65,13.32l252.52 -109.51zm584.28 136.75c0,27.82 -22.4,55.05 -67.17,81.84 -44.77,26.64 -94.69,39.96 -149.31,39.96 -55.51,0 -104.09,-11.54 -146.18,-34.78 -42.99,-22.94 -64.47,-51.95 -64.47,-87.02 0,-21.31 11.64,-40.85 34.92,-58.61 22.38,-17.17 51.94,-25.75 88.65,-25.75 22.38,0 37.61,2.07 45.44,6.07 12.77,6.66 19.03,18.79 19.03,36.55 0,12.43 -0.45,19.54 -1.12,21.46 -2.01,4.15 -5.59,6.52 -10.97,7.25 -5.37,-4.29 -9.4,-7.25 -12.08,-9.03 -10.75,-6.66 -21.5,-10.06 -32.24,-10.06 -11.64,0 -23.06,3.99 -33.57,11.84 -11.65,8.14 -17.48,16.87 -17.48,25.75 0,15.39 13.44,29.01 40.31,40.85 26.19,12.43 53.05,18.65 80.81,18.65 30.44,0 63.13,-7.11 98.27,-21.32 33.8,-14.35 50.82,-30.04 50.82,-47.06 0,-27.97 -55.08,-53.42 -165.21,-76.66 -111.05,-22.35 -166.55,-52.1 -166.55,-89.39 0,-28.56 18.8,-51.65 56.41,-69.41 36.71,-17.17 83.73,-25.76 141.03,-25.76 38.5,0 75.66,5.63 111.47,16.87 34.71,11.26 52.16,23.98 52.16,38.04 0,11.84 -3.36,23.38 -10.51,34.63 -7.16,11.84 -14.33,18.36 -21.49,19.54 -12.54,-16.73 -27.77,-29.76 -45.67,-39.07 -24.4,-13.03 -53.05,-19.53 -85.96,-19.53 -26.86,0 -53.5,4.43 -79.47,13.16 -25.96,9.63 -38.94,19.98 -38.94,31.38 0,11.1 28.2,23.23 84.39,36.4 79.02,18.36 131.85,32.86 158.71,43.37 57.3,23.23 85.97,53.13 85.97,89.84zm280.71 -182.78c-20.6,-11.25 -40.75,-19.24 -60.67,-23.82 -19.7,-4.9 -44.32,-7.26 -73.65,-7.26 -10.75,0 -16.11,2.07 -16.11,6.06l0 207.95c0,15.98 12.53,31.22 37.6,45.28 25.08,14.21 49.7,21.31 73.87,21.31l8.29 -1.77 3.8 6.36c0,6.51 -5.37,16.43 -15.9,30.04 -10.73,13.63 -20.59,20.43 -29.54,20.43 -23.51,0 -53.95,-12.43 -91.56,-37.3 -42.98,-28.41 -64.47,-56.54 -64.47,-84.35l0 -351.65c0,-6.51 9.41,-17.77 28.44,-33.9 17.67,-15.24 30.66,-22.93 38.72,-22.93 2.69,1.78 4.7,2.95 5.6,3.4 3.35,3.11 5.15,5.48 5.15,7.25l0 123.29c0,6.51 4.47,9.76 13.42,9.76l83.28 0.89c11.64,0 23.73,1.33 36.26,3.7 4.48,0.59 10.3,2.07 17.47,4.29l0 72.97zm384.15 -37.59l-2.69 37.14c-18.8,-10.66 -41.65,-18.64 -68.51,-23.82 -27.97,-4.74 -55.74,-7.1 -83.49,-7.1 -28.66,0 -48.8,0.29 -60.67,0.88 -11.64,0.59 -21.49,1.77 -29.55,3.4l0 274.84c0,4.73 4.93,12.44 14.78,23.09 9.84,10.65 14.77,21.6 14.77,32.85l-123.34 0c0,-12.43 4.03,-23.97 11.86,-34.63 8.06,-10.65 12.09,-17.76 12.09,-21.31l0 -305.48c0,-2.36 -5.82,-6.21 -17.46,-11.54 -6.27,-3.11 -9.4,-5.48 -9.4,-7.1 0,-4.88 9.85,-7.25 29.77,-7.25l38.72 1.77 200.58 0c32.9,0 53.51,2.67 61.57,7.99 7.39,5.93 10.97,18.06 10.97,36.27zm425.56 333.29l-8.29 5.33 -189.17 0c-51.93,0 -94.46,-8.59 -127.6,-25.75 -34.02,-17.17 -51.03,-39.66 -51.03,-67.34 0,-40.41 47,-78.59 141.02,-114.7 93.13,-35.53 139.7,-62.76 139.7,-81.7 0,-10.5 -6.26,-19.98 -18.81,-28.26 -13.42,-7.71 -26.87,-11.55 -40.29,-11.55l-107.46 0c-15.22,0 -29.1,6.21 -41.86,18.65 -1.56,1.77 -4.25,5.03 -7.83,9.76l-10.75 -56.09c0,-2.22 0,-4.29 0,-6.21 -0.89,-5.93 0.9,-10.36 5.15,-13.32 5.6,-2.81 19.48,-4.29 41.63,-4.29l162.76 0c21.49,0 40.51,6.21 57.75,18.64 16.12,13.03 24.18,29.9 24.18,50.47l0 253.82c0,6.66 3.13,14.05 9.18,22.35 14.33,18.94 21.72,29.01 21.72,30.19zm-95.37 -46.03l0 -141.93 -12.09 -1.77c-32.24,0 -73.88,11.53 -125.14,34.48 -50.82,23.67 -76.33,45.58 -76.33,65.71 0,18.35 15.67,32.56 47,42.63 25.97,8.28 55.97,12.43 90.22,12.43 21.27,0 39.62,-1.19 55.08,-3.4 14.09,-1.78 21.26,-4.45 21.26,-8.15z"/>
    <path class="fil1" d="M1789.11 1532.55l0 80.82 -37.71 0 0 -61.94c0,-12.35 -2.82,-20.95 -8.44,-25.81 -5.63,-4.92 -15.48,-7.36 -29.49,-7.36 -7.87,0 -15.06,1.08 -21.53,3.14 -6.54,2.1 -14,5.82 -22.37,11.15l0 80.82 -37.5 0 0 -111.3 37.5 0 0 14.62c19.07,-11.19 37.78,-16.81 56.08,-16.81 23.99,0 42.63,6.69 55.86,20.07 20.05,-13.54 41.01,-20.32 62.83,-20.32 18.43,0 33.57,3.97 45.45,11.85 11.89,7.93 17.8,19.99 17.8,36.18l0 65.71 -37.5 0 0 -65.95c0,-9.26 -3.24,-16.36 -9.64,-21.27 -6.47,-4.92 -15.76,-7.39 -27.86,-7.39 -15.55,0 -30.04,4.58 -43.48,13.79zm331.67 27.09l-133.4 0c0.99,10.66 7.03,19.12 18.29,25.4 11.19,6.32 25.61,9.46 43.35,9.46 24.76,0 47.56,-4.5 68.45,-13.55l0 21.52c-11.55,4.54 -23,7.77 -34.33,9.7 -11.33,1.95 -24.63,2.9 -39.9,2.9 -20.89,0 -37.79,-2.57 -50.65,-7.65 -12.95,-5.07 -23.29,-11.89 -31.03,-20.48 -7.81,-8.59 -11.68,-18.54 -11.68,-29.82 0,-16.93 8.16,-30.73 24.56,-41.34 16.32,-10.61 37.56,-15.9 63.66,-15.9 25.12,0 45.25,5.16 60.16,15.49 14.99,10.32 22.52,24.16 22.52,41.5l0 2.77zm-132.56 -13.17l95.41 0c-0.92,-8.79 -5.42,-15.57 -13.37,-20.32 -7.95,-4.8 -18.71,-7.15 -32.16,-7.15 -13.44,0 -24.47,2.35 -33.06,7.15 -8.58,4.75 -14.21,11.53 -16.82,20.32zm299.73 -102.14l37.71 0 0 169.04 -80.21 0c-28,0 -50.37,-5.2 -67.04,-15.61 -16.76,-10.41 -25.05,-24.37 -25.05,-41.87 0,-16.36 8.72,-29.82 26.23,-40.4 17.52,-10.57 39.9,-15.86 67.13,-15.86 12.66,0 26.38,1.57 41.23,4.72l0 -60.02zm0 150.17l0 -70.54c-11.68,-3.47 -23.5,-5.2 -35.47,-5.2 -18.71,0 -33.55,3.59 -44.6,10.77 -11.11,7.19 -16.6,16.86 -16.6,29.04 0,11.44 4.78,20.27 14.42,26.47 5.77,3.72 11.89,6.23 18.37,7.52 6.39,1.27 18,1.94 34.82,1.94l29.06 0zm108 -139.26c6.18,0 11.46,1.23 15.89,3.76 4.37,2.48 6.62,5.53 6.62,9.16 0,3.55 -2.25,6.65 -6.62,9.21 -4.43,2.6 -9.71,3.89 -15.89,3.89 -5.78,0 -10.84,-1.33 -15.2,-3.93 -4.43,-2.64 -6.62,-5.69 -6.62,-9.17 0,-3.38 2.19,-6.36 6.62,-9 4.36,-2.6 9.42,-3.92 15.2,-3.92zm-18.5 46.83l37.49 0 0 111.3 -37.49 0 0 -111.3zm210.79 44.4l0 47.29c0,3.79 2.24,5.69 6.6,5.69 4.51,0 11.61,-1.98 21.26,-5.9l0 13.42c-8.52,3.23 -15.35,5.42 -20.54,6.57 -5.15,1.19 -10.56,1.77 -16.19,1.77 -16.04,0 -25.54,-3.71 -28.43,-11.15 -15.97,7.27 -32.92,10.91 -50.94,10.91 -13.15,0 -24.13,-2.57 -32.92,-7.69 -8.8,-5.12 -13.23,-11.56 -13.23,-19.28 0,-7.02 4.29,-13.3 12.88,-18.83 8.59,-5.54 20.82,-9.91 36.58,-13.14l48.06 -9.66 0 -5.95c0,-13.38 -11.41,-20.06 -34.2,-20.06 -20.47,0 -40.45,6.19 -59.8,18.62l0 -24.08c14.57,-10.08 35.52,-15.12 62.89,-15.12 20.48,0 36.88,3.14 49.26,9.42 4.08,2.02 7.8,4.71 11.12,8.05 3.31,3.35 5.42,6.69 6.26,10.04 0.91,3.39 1.34,9.7 1.34,19.08zm-36.87 44.89l0 -33.04 -25.19 5.7c-12.74,2.97 -21.81,5.99 -27.09,9 -5.28,3.02 -7.95,6.78 -7.95,11.31 0,4.6 2.53,8.36 7.53,11.24 5.06,2.94 11.53,4.39 19.48,4.39 11.97,0 23.02,-2.9 33.22,-8.6zm338.49 -89.29l44.75 0 -81.05 54.56 97.51 56.74 -50.3 0 -94.98 -56.74 84.07 -54.56zm-123.27 -57.74l37.51 0 0 169.04 -37.51 0 0 -169.04zm280.31 57.49c28.84,0 52.83,5.46 71.9,16.4 19.15,10.9 28.71,24.65 28.71,41.18 0,16.06 -9.71,29.4 -29.05,40.01 -19.42,10.57 -43.77,15.9 -73.18,15.9 -28.49,0 -52.27,-5.37 -71.34,-16.14 -19.13,-10.78 -28.64,-24.25 -28.64,-40.35 0,-16.32 9.65,-29.87 28.92,-40.72 19.35,-10.87 43.55,-16.28 72.68,-16.28zm-2.04 19.82c-18.01,0 -32.79,3.48 -44.33,10.42 -11.54,6.93 -17.31,15.77 -17.31,26.51 0,10.66 5.92,19.32 17.74,26.06 11.82,6.73 26.94,10.12 45.52,10.12 18.43,0 33.48,-3.43 45.24,-10.24 11.74,-6.83 17.66,-15.53 17.66,-26.19 0,-10.57 -6.12,-19.33 -18.36,-26.26 -12.25,-6.94 -27.66,-10.42 -46.16,-10.42zm299.72 10.91l0 80.82 -37.71 0 0 -61.94c0,-12.35 -2.82,-20.95 -8.44,-25.81 -5.63,-4.92 -15.48,-7.36 -29.48,-7.36 -7.88,0 -15.06,1.08 -21.53,3.14 -6.54,2.1 -14,5.82 -22.37,11.15l0 80.82 -37.51 0 0 -111.3 37.51 0 0 14.62c19.06,-11.19 37.79,-16.81 56.07,-16.81 23.99,0 42.64,6.69 55.86,20.07 20.06,-13.54 41.02,-20.32 62.83,-20.32 18.43,0 33.57,3.97 45.45,11.85 11.9,7.93 17.81,19.99 17.81,36.18l0 65.71 -37.51 0 0 -65.95c0,-9.26 -3.23,-16.36 -9.64,-21.27 -6.46,-4.92 -15.76,-7.39 -27.85,-7.39 -15.55,0 -30.05,4.58 -43.49,13.79zm286.71 80.82l0 -14.16c-8.03,5.08 -17.1,9.04 -27.3,11.85 -10.27,2.85 -20.47,4.25 -30.67,4.25 -11.9,0 -22.94,-1.77 -33.07,-5.28 -10.06,-3.51 -17.73,-8.26 -22.87,-14.25 -5.13,-6.03 -7.74,-15.98 -7.74,-29.93l0 -63.78 37.5 0 0 63.52c0,11.69 2.89,19.86 8.59,24.49 5.69,4.62 15.69,6.94 29.97,6.94 17.87,0 33.07,-5.12 45.59,-15.36l0 -79.59 37.51 0 0 111.3 -37.51 0zm127.77 -111.3l0 14.12c16.76,-10.86 35.81,-16.31 57.13,-16.31 11.82,0 22.8,1.78 32.93,5.37 10.2,3.59 17.95,8.51 23.21,14.79 5.29,6.24 7.96,16.14 7.96,29.69l0 63.64 -37.5 0 0 -63.39c0,-11.4 -2.96,-19.5 -8.86,-24.36 -5.92,-4.92 -15.84,-7.36 -29.7,-7.36 -17.73,0 -32.78,5.21 -45.17,15.61l0 79.5 -38.34 0 0 -111.3 38.34 0zm192.93 -46.83c6.19,0 11.47,1.23 15.9,3.76 4.36,2.48 6.61,5.53 6.61,9.16 0,3.55 -2.25,6.65 -6.61,9.21 -4.43,2.6 -9.71,3.89 -15.9,3.89 -5.78,0 -10.84,-1.33 -15.2,-3.93 -4.43,-2.64 -6.61,-5.69 -6.61,-9.17 0,-3.38 2.18,-6.36 6.61,-9 4.36,-2.6 9.42,-3.92 15.2,-3.92zm-18.5 46.83l37.5 0 0 111.3 -37.5 0 0 -111.3zm214.93 0l44.75 0 -81.05 54.56 97.52 56.74 -50.3 0 -94.98 -56.74 84.06 -54.56zm-123.26 -57.74l37.5 0 0 169.04 -37.5 0 0 -169.04zm321.33 102.14l0 47.29c0,3.79 2.25,5.69 6.6,5.69 4.51,0 11.61,-1.98 21.26,-5.9l0 13.42c-8.51,3.23 -15.34,5.42 -20.54,6.57 -5.14,1.19 -10.56,1.77 -16.18,1.77 -16.04,0 -25.55,-3.71 -28.44,-11.15 -15.96,7.27 -32.92,10.91 -50.93,10.91 -13.16,0 -24.14,-2.57 -32.92,-7.69 -8.81,-5.12 -13.24,-11.56 -13.24,-19.28 0,-7.02 4.3,-13.3 12.89,-18.83 8.58,-5.54 20.81,-9.91 36.58,-13.14l48.05 -9.66 0 -5.95c0,-13.38 -11.4,-20.06 -34.2,-20.06 -20.47,0 -40.45,6.19 -59.79,18.62l0 -24.08c14.56,-10.08 35.52,-15.12 62.89,-15.12 20.48,0 36.87,3.14 49.25,9.42 4.09,2.02 7.81,4.71 11.13,8.05 3.3,3.35 5.41,6.69 6.25,10.04 0.92,3.39 1.34,9.7 1.34,19.08zm-36.87 44.89l0 -33.04 -25.19 5.7c-12.73,2.97 -21.81,5.99 -27.08,9 -5.28,3.02 -7.96,6.78 -7.96,11.31 0,4.6 2.54,8.36 7.53,11.24 5.07,2.94 11.54,4.39 19.49,4.39 11.96,0 23.01,-2.9 33.21,-8.6z"/>
    <path class="fil2" d="M2870.27 451.22c92.66,98.24 87.44,252.42 -11.63,344.3 -99.07,91.87 -254.56,86.71 -347.22,-11.53 -92.66,-98.24 -87.45,-252.42 11.63,-344.3 99.07,-91.87 254.56,-86.71 347.22,11.53z"/>
    <path class="fil2" d="M2201.33 703.92c0,23.03 -1.99,44.86 -6.2,66.4 -4.22,21.24 -8.43,31.71 -12.65,31.71 -3.47,0 -5.21,-1.49 -5.21,-5.09 0.49,-2.39 0.99,-4.78 1.49,-6.87 7.19,-20.64 10.91,-48.17 10.91,-82.56 0,-77.47 -25.8,-143.58 -77.13,-197.42 -51.34,-54.14 -113.84,-81.06 -188,-81.06 -119.79,0 -242.3,70.59 -367.8,212.07 -49.35,55.34 -92.01,109.48 -127.72,162.13 -34.48,49.65 -101.68,154.64 -202.13,315.27 -148.06,236.6 -269.84,384.37 -364.58,443.3 -42.66,26.32 -70.19,39.48 -82.09,39.48 -2.98,0 -4.22,-2.09 -4.22,-6.28 0.25,-0.3 5.46,-5.09 15.13,-13.76 47.37,-42.78 85.32,-99.91 113.34,-171.99 26.04,-65.81 73.17,-222.25 140.87,-468.73 57.79,-210.28 123.52,-361.03 197.67,-451.97 2.97,-3.59 4.46,-6.58 4.46,-8.97 -6.44,-2.1 -20.58,10.47 -42.9,37.69 -72.17,86.45 -156.99,241.98 -254.46,466.33 -60.02,137.89 -112.6,242.28 -157.99,313.18 -45.38,71.18 -99.2,133.4 -161.7,187.24 -102.67,88.84 -205.85,133.11 -309.52,133.11 -67.46,0 -122.27,-17.05 -164.68,-51.15 -42.41,-34.39 -63.49,-78.37 -63.49,-132.21 0,-30.21 7.19,-55.93 21.83,-76.57 14.38,-20.64 32.73,-31.11 54.56,-31.11 31.5,0 47.12,18.84 47.12,56.23 0,19.15 -5.21,35.6 -15.38,49.36 -10.16,13.76 -22.32,20.64 -36.95,20.64 -23.81,0 -35.71,-15.85 -35.71,-47.26 0,-11.67 -1.74,-17.65 -5.71,-17.65 -7.69,0 -11.66,16.15 -11.66,48.16 0,47.85 19.85,87.34 59.28,117.85 39.43,30.81 90.28,46.06 152.28,46.06 126.24,0 250.49,-79.26 372.01,-237.49 48.86,-63.72 90.28,-125.64 124.26,-186.06 33.98,-60.42 101.44,-192.04 202.63,-394.83 42.66,-85.86 90.77,-163.93 144.34,-233.92 53.57,-69.99 91.77,-105.29 114.58,-105.29 3.22,0 4.96,1.8 4.96,5.39 -0.49,2.38 -1.49,4.78 -2.97,6.88 -44.89,59.82 -85.57,172.28 -122.02,337.4 -54.32,242.59 -105.41,419.07 -153.28,529.45 -47.62,107.38 -108.63,188.74 -183.28,244.37 -1.98,0.6 -2.73,1.8 -2.73,3.59 0.5,0.6 1.25,1.2 2.73,1.5 11.16,0 38.44,-18.54 81.35,-55.94 52.33,-44.27 100.69,-97.51 144.59,-159.43 44.14,-61.91 124.01,-188.74 239.83,-380.18 81.84,-135.5 147.07,-234.8 195.18,-297.62 48.12,-62.82 101.69,-118.15 160.22,-166.01 91.51,-74.19 183.78,-111.28 276.78,-111.28 81.34,0 148.31,28.72 200.89,85.85 52.58,57.13 78.87,130.11 78.87,218.06zm-349.45 -237.51c0,3 -6.45,8.68 -19.59,16.76 -56.8,36.19 -106.65,88.54 -149.8,157.04 -43.16,68.19 -92.27,173.19 -147.33,314.37 -80.6,205.8 -152.27,353.56 -215.51,443.6 -63.25,90.03 -141.37,154.35 -234.38,193.53 43.16,7.48 76.39,11.36 99.45,11.36 74.66,0 134.43,-19.14 179.32,-57.42 44.64,-38.29 108.13,-124.14 189.98,-257.25 5.2,-8.08 9.42,-12.27 12.4,-12.27 1.73,0.6 2.72,2.4 2.72,5.09 0,5.98 -22.81,43.67 -68.2,113.37 -55.8,85.24 -105.4,143.28 -149.3,174.38 -43.9,30.82 -97.72,46.37 -161.71,46.37 -39.68,0 -82.58,-5.08 -128.46,-15.55 -32.49,12.56 -65.73,19.14 -99.71,19.14 -25.54,0 -38.44,-5.98 -38.44,-17.65 0,-14.36 17.86,-21.84 53.82,-21.84 19.84,0 45.88,3 78.37,8.97l9.43 0c51.33,-22.43 94.98,-57.42 130.45,-105.58 35.72,-48.46 78.37,-129.82 128.22,-244.08 101.19,-232.12 181.55,-396.34 240.58,-492.66 57.04,-92.42 125.74,-171.09 205.59,-236.6 40.18,-32.01 66.22,-48.16 77.63,-48.16 2.98,0 4.47,1.8 4.47,5.08zm-802.07 188.45c0,12.87 -13.89,37.99 -41.42,75.38 -41.66,56.54 -82.09,84.95 -120.78,84.95 -26.54,0 -49.11,-11.96 -67.71,-35.59 -18.35,-23.63 -27.53,-52.65 -27.53,-87.05 0,-33.2 9.92,-73.28 29.77,-119.94 24.8,-58.33 37.2,-99.61 37.2,-123.54 0,-29.92 -11.66,-53.84 -34.97,-71.79 -23.07,-18.25 -53.57,-27.22 -91.52,-27.22 -107.89,0 -209.32,52.65 -304.31,157.64 -94.99,105.29 -142.36,217.16 -142.36,335.61 0,61.32 15.62,111.27 46.87,150.16 31.25,38.88 71.43,58.33 120.29,58.33 43.65,0 87.8,-14.96 132.69,-45.17 44.89,-29.91 81.09,-68.8 108.63,-116.06 1.98,-2.99 3.47,-4.48 4.46,-4.48 3.72,0 5.71,2.69 5.71,8.07 0,11.67 -15.63,34.1 -46.63,67.3 -63.99,69.69 -133.19,104.39 -207.84,104.39 -52.33,0 -94.98,-20.33 -127.97,-61.31 -32.99,-40.98 -49.35,-93.93 -49.35,-159.43 0,-126.84 48.61,-243.19 145.58,-349.68 97.22,-106.19 203.37,-159.43 318.69,-159.43 47.37,0 84.57,14.36 111.36,42.77 27.03,28.72 40.43,68.2 40.43,118.46 0,37.38 -15.63,94.22 -46.63,170.79 -10.67,26.93 -15.87,48.16 -15.87,63.72 0,44.57 19.84,66.7 59.52,66.7 23.81,0 50.35,-13.76 79.61,-40.98 29.51,-27.52 53.08,-61.02 70.94,-100.8 2.47,-5.68 4.95,-8.68 7.43,-8.68 3.72,0 5.71,2.4 5.71,6.88z"/>
    <path class="fil3" d="M2857.04 463.48c85.63,90.79 80.79,234.03 -10.76,318.93 -1.91,1.77 -3.85,3.48 -5.81,5.18 79.03,-86.23 77.4,-222.48 -6.7,-311.65 -58.86,-62.41 -143.61,-86.37 -220.75,-70.32 83.09,-29.82 180,-10.03 244.02,57.86z"/>
    <path class="fil4" d="M3653.37 76.74c683.88,0 1241.63,382.21 1241.63,850.79 0,280.56 -200,530.1 -507.26,685.24 220.41,-133.49 361.37,-335.63 361.37,-561.24 0,-400.29 -443.7,-726.79 -987.72,-726.79 -318.24,0 -602.09,111.74 -782.92,284.62 -1.9,-67.23 -27.51,-134.01 -77.3,-186.8 -40.2,-42.62 -90.63,-70.26 -144.11,-82.69 226.26,-161.99 544.56,-263.13 896.31,-263.13z"/>
    <path class="fil5" d="M3643.03 25.48c683.88,0 1241.64,382.21 1241.64,850.79 0,280.57 -200.01,530.11 -507.27,685.24 220.41,-133.48 361.37,-335.63 361.37,-561.23 0,-400.29 -443.69,-726.79 -987.71,-726.79 -316.21,0 -598.44,110.31 -779.43,281.31 -10.81,-48.01 -34.23,-93.83 -70.46,-132.24 -56.79,-60.22 -134.05,-90.53 -211.41,-90.28 228.05,-187.28 570.9,-306.8 953.27,-306.8z"/>
   </g>
   <g>
    <path class="fil0" d="M734.99 1838.65c0,17.34 -2.3,32.23 -6.85,44.57 -4.55,12.35 -11.04,22.44 -19.54,30.24 -8.5,7.8 -18.79,13.54 -30.94,17.19 -12.19,3.65 -26.63,5.5 -43.43,5.5l-45.22 0c-3.25,0 -5.95,-0.95 -8.15,-2.85 -2.2,-1.9 -3.3,-5 -3.3,-9.29l0 -165.18c0,-4.3 1.1,-7.39 3.3,-9.29 2.2,-1.9 4.9,-2.85 8.15,-2.85l48.57 0c16.89,0 31.24,2 42.98,5.95 11.75,3.94 21.69,9.79 29.74,17.54 8.04,7.74 14.19,17.34 18.39,28.78 4.2,11.4 6.3,24.64 6.3,39.69zm-39.83 1.29c0,-8.99 -1.05,-17.29 -3.15,-25.03 -2.1,-7.7 -5.5,-14.4 -10.15,-20.04 -4.6,-5.65 -10.54,-10.1 -17.84,-13.25 -7.25,-3.2 -16.79,-4.8 -28.64,-4.8l-19.44 0 0 128.89 20.04 0c10.55,0 19.44,-1.4 26.64,-4.09 7.25,-2.75 13.24,-6.9 18.09,-12.4 4.85,-5.5 8.45,-12.39 10.85,-20.59 2.4,-8.19 3.6,-17.74 3.6,-28.69zm189.86 22.14c0,4.45 -1,7.8 -3,9.95 -2,2.15 -4.75,3.2 -8.25,3.2l-79.51 0c0,5.6 0.65,10.64 1.95,15.14 1.35,4.55 3.44,8.4 6.29,11.6 2.9,3.14 6.6,5.59 11.15,7.24 4.55,1.65 9.99,2.5 16.34,2.5 6.45,0 12.1,-0.5 16.94,-1.4 4.9,-0.95 9.15,-1.95 12.7,-3.1 3.55,-1.1 6.49,-2.15 8.84,-3.05 2.35,-0.94 4.25,-1.39 5.7,-1.39 0.9,0 1.65,0.15 2.2,0.5 0.6,0.35 1.1,0.94 1.5,1.84 0.35,0.85 0.65,2.1 0.8,3.75 0.15,1.6 0.2,3.6 0.2,6.05 0,2.15 -0.05,4 -0.15,5.5 -0.1,1.5 -0.25,2.8 -0.45,3.9 -0.15,1.05 -0.45,1.94 -0.85,2.69 -0.4,0.75 -0.9,1.45 -1.55,2.1 -0.65,0.7 -2.35,1.65 -5.2,2.8 -2.85,1.15 -6.45,2.3 -10.84,3.45 -4.4,1.1 -9.4,2.1 -15.05,2.9 -5.69,0.85 -11.74,1.25 -18.19,1.25 -11.59,0 -21.79,-1.45 -30.53,-4.4 -8.7,-2.9 -16,-7.35 -21.89,-13.29 -5.85,-5.95 -10.2,-13.5 -13.1,-22.54 -2.85,-9.1 -4.3,-19.74 -4.3,-31.94 0,-11.59 1.5,-22.09 4.55,-31.38 3,-9.35 7.4,-17.25 13.15,-23.74 5.79,-6.5 12.79,-11.45 21.04,-14.85 8.24,-3.44 17.54,-5.14 27.88,-5.14 10.95,0 20.29,1.6 28.04,4.84 7.75,3.2 14.14,7.7 19.09,13.4 5,5.7 8.65,12.44 11,20.29 2.35,7.8 3.5,16.29 3.5,25.44l0 5.89zm-35.74 -10.54c0.3,-10.35 -1.75,-18.49 -6.2,-24.39 -4.44,-5.9 -11.29,-8.84 -20.59,-8.84 -4.69,0 -8.74,0.84 -12.19,2.59 -3.5,1.75 -6.35,4.15 -8.65,7.1 -2.29,3 -4.04,6.5 -5.29,10.55 -1.2,4.04 -1.9,8.39 -2.1,12.99l55.02 0zm158.03 42.73c0,7.45 -1.4,13.94 -4.2,19.64 -2.75,5.65 -6.7,10.4 -11.74,14.19 -5.1,3.8 -11.1,6.65 -18.05,8.55 -6.89,1.9 -14.44,2.85 -22.54,2.85 -4.89,0 -9.54,-0.35 -13.99,-1.1 -4.45,-0.7 -8.39,-1.65 -11.89,-2.75 -3.55,-1.15 -6.45,-2.3 -8.8,-3.45 -2.35,-1.2 -4.05,-2.3 -5.15,-3.3 -1.05,-1.05 -1.9,-2.65 -2.5,-4.84 -0.55,-2.2 -0.84,-5.45 -0.84,-9.75 0,-2.8 0.09,-5.1 0.29,-6.8 0.2,-1.7 0.5,-3.05 0.85,-4.09 0.4,-1 0.9,-1.7 1.5,-2.05 0.55,-0.35 1.3,-0.5 2.2,-0.5 1.05,0 2.65,0.6 4.75,1.85 2.1,1.2 4.7,2.54 7.85,3.99 3.1,1.45 6.74,2.85 10.89,4.1 4.15,1.3 8.85,1.9 14.1,1.9 3.34,0 6.29,-0.35 8.89,-1 2.55,-0.7 4.8,-1.65 6.7,-2.95 1.95,-1.25 3.35,-2.85 4.35,-4.84 0.95,-1.95 1.45,-4.2 1.45,-6.7 0,-2.95 -0.9,-5.45 -2.7,-7.55 -1.8,-2.1 -4.2,-3.95 -7.2,-5.5 -2.95,-1.55 -6.3,-3.04 -10.1,-4.39 -3.74,-1.35 -7.59,-2.9 -11.54,-4.55 -3.95,-1.65 -7.8,-3.55 -11.59,-5.7 -3.75,-2.15 -7.1,-4.8 -10.1,-7.9 -2.95,-3.14 -5.35,-6.89 -7.15,-11.29 -1.8,-4.4 -2.7,-9.65 -2.7,-15.79 0,-6.25 1.2,-12 3.65,-17.19 2.45,-5.25 5.95,-9.7 10.55,-13.45 4.55,-3.7 10.14,-6.55 16.74,-8.59 6.6,-2.05 13.99,-3.1 22.19,-3.1 4.1,0 8.1,0.3 11.94,0.9 3.85,0.55 7.35,1.3 10.45,2.2 3.15,0.85 5.75,1.79 7.9,2.84 2.14,1 3.69,1.9 4.64,2.6 0.9,0.75 1.55,1.5 1.95,2.2 0.4,0.75 0.7,1.65 0.9,2.65 0.2,1.05 0.35,2.3 0.5,3.8 0.15,1.55 0.25,3.4 0.25,5.65 0,2.65 -0.1,4.79 -0.25,6.44 -0.15,1.65 -0.4,3 -0.75,3.95 -0.3,1 -0.8,1.65 -1.35,2 -0.6,0.35 -1.3,0.5 -2.05,0.5 -0.9,0 -2.25,-0.5 -4.09,-1.55 -1.9,-1 -4.2,-2.1 -7,-3.3 -2.75,-1.15 -6,-2.25 -9.65,-3.3 -3.64,-1 -7.84,-1.49 -12.49,-1.49 -3.35,0 -6.2,0.29 -8.65,0.99 -2.45,0.7 -4.44,1.65 -5.99,2.95 -1.6,1.25 -2.75,2.75 -3.55,4.45 -0.75,1.7 -1.15,3.55 -1.15,5.5 0,3 0.9,5.55 2.8,7.59 1.85,2.05 4.25,3.85 7.29,5.45 3.05,1.55 6.45,3 10.35,4.4 3.85,1.35 7.75,2.85 11.69,4.45 3.95,1.6 7.85,3.5 11.7,5.65 3.85,2.14 7.29,4.74 10.34,7.89 3,3.1 5.45,6.85 7.3,11.2 1.85,4.34 2.8,9.49 2.8,15.44zm64.56 36.88c0,1 -0.25,1.85 -0.85,2.6 -0.6,0.7 -1.59,1.35 -2.99,1.8 -1.45,0.5 -3.3,0.85 -5.65,1.1 -2.35,0.25 -5.3,0.4 -8.95,0.4 -3.6,0 -6.59,-0.15 -8.89,-0.4 -2.35,-0.25 -4.25,-0.6 -5.65,-1.1 -1.45,-0.45 -2.45,-1.1 -3,-1.8 -0.6,-0.75 -0.9,-1.6 -0.9,-2.6l0 -130.29c0,-1 0.3,-1.85 0.9,-2.55 0.55,-0.75 1.55,-1.39 3,-1.89 1.4,-0.55 3.3,-0.95 5.65,-1.25 2.3,-0.3 5.29,-0.45 8.89,-0.45 3.65,0 6.6,0.15 8.95,0.45 2.35,0.3 4.2,0.7 5.65,1.25 1.4,0.5 2.39,1.14 2.99,1.89 0.6,0.7 0.85,1.55 0.85,2.55l0 130.29zm2.8 -174.82c0,7.45 -1.5,12.55 -4.55,15.4 -2.99,2.85 -8.64,4.24 -16.84,4.24 -8.29,0 -13.84,-1.34 -16.74,-4.09 -2.9,-2.75 -4.35,-7.65 -4.35,-14.8 0,-7.39 1.5,-12.54 4.5,-15.44 2.95,-2.9 8.6,-4.35 16.89,-4.35 8.2,0 13.8,1.4 16.69,4.2 2.95,2.8 4.4,7.75 4.4,14.84zm151.74 53.33c0,4.65 -0.55,8.15 -1.65,10.39 -1.05,2.25 -2.35,3.35 -3.95,3.35l-15.34 0c2.15,2.35 3.64,5 4.59,8 0.95,2.95 1.4,6.05 1.4,9.29 0,7.6 -1.3,14.35 -3.79,20.3 -2.55,5.89 -6.2,10.84 -10.95,14.89 -4.7,4.05 -10.44,7.14 -17.09,9.24 -6.7,2.1 -14.15,3.15 -22.34,3.15 -4.2,0 -8.2,-0.5 -12,-1.55 -3.84,-1 -6.74,-2.2 -8.79,-3.6 -1.2,1.3 -2.25,2.8 -3.15,4.55 -0.95,1.75 -1.4,3.7 -1.4,5.85 0,2.85 1.25,5.15 3.75,7 2.45,1.8 5.95,2.8 10.44,3l31.79 1.14c7.4,0.3 14.04,1.35 19.84,3.15 5.8,1.8 10.69,4.35 14.64,7.6 3.95,3.3 6.95,7.2 9.05,11.79 2.1,4.6 3.15,9.85 3.15,15.7 0,6.44 -1.4,12.49 -4.25,18.24 -2.8,5.7 -7.05,10.64 -12.69,14.84 -5.7,4.2 -12.8,7.5 -21.34,9.95 -8.55,2.45 -18.5,3.65 -29.94,3.65 -11.1,0 -20.59,-0.85 -28.49,-2.6 -7.84,-1.8 -14.29,-4.2 -19.29,-7.35 -5.05,-3.1 -8.69,-6.85 -10.99,-11.2 -2.3,-4.34 -3.45,-9.09 -3.45,-14.29 0,-3.2 0.4,-6.3 1.25,-9.19 0.85,-2.95 2.05,-5.75 3.65,-8.45 1.6,-2.65 3.59,-5.25 5.94,-7.65 2.35,-2.45 5,-4.79 8.05,-7.04 -4.2,-2.25 -7.45,-5.3 -9.75,-9.15 -2.3,-3.85 -3.44,-8.1 -3.44,-12.69 0,-5.75 1.34,-11 3.94,-15.75 2.65,-4.69 6.1,-8.99 10.3,-12.79 -3.45,-3.4 -6.2,-7.5 -8.25,-12.29 -2.05,-4.8 -3.05,-10.75 -3.05,-17.85 0,-7.64 1.35,-14.44 4.05,-20.44 2.65,-5.99 6.4,-11.09 11.2,-15.24 4.74,-4.15 10.49,-7.3 17.09,-9.49 6.65,-2.2 13.99,-3.3 21.99,-3.3 4.1,0 8.05,0.25 11.79,0.7 3.75,0.5 7.25,1.2 10.45,2.05l41.43 0c1.65,0 3,1.1 4.05,3.24 1,2.15 1.55,5.75 1.55,10.85zm-47.33 30.88c0,-7.04 -1.95,-12.49 -5.85,-16.39 -3.9,-3.9 -9.39,-5.84 -16.54,-5.84 -3.6,0 -6.8,0.59 -9.5,1.79 -2.75,1.25 -4.99,2.9 -6.84,5 -1.8,2.1 -3.15,4.55 -4,7.3 -0.9,2.8 -1.35,5.7 -1.35,8.74 0,6.6 2,11.85 5.9,15.75 3.89,3.85 9.29,5.74 16.24,5.74 3.7,0 6.95,-0.55 9.64,-1.74 2.75,-1.15 5,-2.8 6.8,-4.85 1.85,-2.05 3.2,-4.4 4.1,-7.1 0.95,-2.65 1.4,-5.5 1.4,-8.4zm8.64 104.26c0,-4.4 -1.74,-7.75 -5.24,-10.1 -3.55,-2.35 -8.35,-3.65 -14.5,-3.8l-26.23 -0.75c-2.55,1.85 -4.55,3.65 -6.05,5.35 -1.55,1.7 -2.75,3.35 -3.7,4.9 -0.9,1.55 -1.5,3.05 -1.8,4.55 -0.3,1.45 -0.45,2.94 -0.45,4.54 0,4.85 2.45,8.55 7.4,11.1 4.95,2.55 11.89,3.8 20.84,3.8 5.6,0 10.29,-0.55 14.09,-1.65 3.8,-1.15 6.85,-2.65 9.2,-4.5 2.35,-1.85 4,-3.9 5,-6.2 0.94,-2.3 1.44,-4.7 1.44,-7.24zm187.86 -13.65c0,1 -0.3,1.85 -0.85,2.6 -0.6,0.7 -1.6,1.35 -2.95,1.8 -1.34,0.5 -3.24,0.85 -5.64,1.1 -2.4,0.25 -5.35,0.4 -8.85,0.4 -3.6,0 -6.6,-0.15 -8.99,-0.4 -2.4,-0.25 -4.3,-0.6 -5.65,-1.1 -1.35,-0.45 -2.35,-1.1 -2.95,-1.8 -0.55,-0.75 -0.85,-1.6 -0.85,-2.6l0 -74.51c0,-6.35 -0.45,-11.3 -1.4,-14.95 -0.95,-3.59 -2.25,-6.69 -4.05,-9.29 -1.75,-2.55 -4,-4.55 -6.79,-6 -2.75,-1.4 -6,-2.1 -9.75,-2.1 -4.65,0 -9.4,1.7 -14.19,5.1 -4.75,3.45 -9.75,8.4 -14.95,14.94l0 86.81c0,1 -0.25,1.85 -0.85,2.6 -0.6,0.7 -1.59,1.35 -2.99,1.8 -1.45,0.5 -3.3,0.85 -5.65,1.1 -2.35,0.25 -5.3,0.4 -8.95,0.4 -3.6,0 -6.59,-0.15 -8.89,-0.4 -2.35,-0.25 -4.25,-0.6 -5.65,-1.1 -1.45,-0.45 -2.45,-1.1 -3,-1.8 -0.6,-0.75 -0.9,-1.6 -0.9,-2.6l0 -130.59c0,-0.95 0.25,-1.85 0.75,-2.55 0.5,-0.75 1.35,-1.34 2.65,-1.84 1.25,-0.5 2.9,-0.85 4.9,-1.1 2,-0.25 4.5,-0.35 7.54,-0.35 3.1,0 5.7,0.1 7.75,0.35 2.05,0.25 3.65,0.6 4.75,1.1 1.15,0.5 1.95,1.09 2.4,1.84 0.5,0.7 0.75,1.6 0.75,2.55l0 15.1c7.24,-7.8 14.59,-13.7 22.04,-17.6 7.44,-3.89 15.24,-5.84 23.34,-5.84 8.89,0 16.39,1.45 22.49,4.4 6.09,2.94 11.04,6.89 14.79,11.94 3.75,5 6.45,10.89 8.09,17.64 1.7,6.75 2.5,14.84 2.5,24.29l0 80.66zm168.67 -68.67c0,5.7 -0.55,9.65 -1.6,11.9 -1.1,2.25 -2.8,3.35 -5.15,3.35l-60.87 0c-2.45,0 -4.2,-1.15 -5.29,-3.45 -1.05,-2.3 -1.6,-6.2 -1.6,-11.8 0,-5.44 0.55,-9.29 1.6,-11.54 1.09,-2.25 2.84,-3.35 5.29,-3.35l60.87 0c1.2,0 2.2,0.2 3,0.7 0.85,0.5 1.55,1.35 2.15,2.5 0.6,1.15 1,2.75 1.25,4.7 0.25,1.95 0.35,4.3 0.35,6.99zm226.8 -58.27c0,10.65 -1.65,20.09 -5,28.29 -3.3,8.19 -8.14,15.09 -14.49,20.69 -6.35,5.65 -14.14,9.89 -23.34,12.84 -9.25,2.9 -20.09,4.4 -32.58,4.4l-15.8 0 0 60.47c0,0.95 -0.35,1.85 -0.95,2.6 -0.65,0.8 -1.7,1.45 -3.15,1.9 -1.5,0.5 -3.44,0.9 -5.89,1.2 -2.4,0.3 -5.55,0.45 -9.35,0.45 -3.7,0 -6.8,-0.15 -9.29,-0.45 -2.5,-0.3 -4.5,-0.7 -5.95,-1.2 -1.45,-0.45 -2.5,-1.1 -3.05,-1.9 -0.6,-0.75 -0.9,-1.65 -0.9,-2.6l0 -170.47c0,-4.55 1.2,-7.99 3.6,-10.29 2.4,-2.3 5.55,-3.45 9.44,-3.45l44.63 0c4.5,0 8.8,0.15 12.85,0.5 4.05,0.35 8.89,1.1 14.54,2.2 5.7,1.15 11.4,3.2 17.19,6.24 5.85,3 10.8,6.85 14.9,11.5 4.09,4.6 7.19,10.04 9.34,16.24 2.15,6.2 3.25,13.15 3.25,20.84zm-40.28 2.8c0,-6.65 -1.15,-12.09 -3.5,-16.39 -2.35,-4.3 -5.25,-7.5 -8.65,-9.55 -3.39,-2.05 -6.99,-3.3 -10.74,-3.85 -3.8,-0.55 -7.65,-0.8 -11.65,-0.8l-16.39 0 0 64.27 17.24 0c6.15,0 11.3,-0.85 15.45,-2.49 4.15,-1.65 7.54,-4 10.19,-6.95 2.65,-3 4.65,-6.55 6,-10.7 1.35,-4.14 2.05,-8.64 2.05,-13.54zm151.83 5.7c0,3.55 -0.1,6.39 -0.3,8.64 -0.2,2.25 -0.5,4 -0.9,5.3 -0.35,1.25 -0.9,2.15 -1.5,2.6 -0.65,0.5 -1.45,0.75 -2.45,0.75 -0.75,0 -1.64,-0.15 -2.59,-0.5 -1,-0.35 -2.1,-0.7 -3.3,-1.1 -1.25,-0.4 -2.6,-0.75 -4.05,-1.1 -1.45,-0.35 -3.05,-0.5 -4.85,-0.5 -2.05,0 -4.1,0.4 -6.15,1.2 -2.04,0.85 -4.14,2.15 -6.34,3.9 -2.2,1.75 -4.5,4.1 -6.9,7.05 -2.4,2.89 -4.95,6.54 -7.7,10.79l0 81.41c0,1 -0.25,1.85 -0.85,2.6 -0.6,0.7 -1.59,1.35 -2.99,1.8 -1.45,0.5 -3.3,0.85 -5.65,1.1 -2.35,0.25 -5.3,0.4 -8.95,0.4 -3.6,0 -6.59,-0.15 -8.89,-0.4 -2.35,-0.25 -4.25,-0.6 -5.65,-1.1 -1.45,-0.45 -2.45,-1.1 -3,-1.8 -0.6,-0.75 -0.9,-1.6 -0.9,-2.6l0 -130.59c0,-0.95 0.25,-1.85 0.75,-2.55 0.5,-0.75 1.35,-1.34 2.65,-1.84 1.25,-0.5 2.9,-0.85 4.9,-1.1 2,-0.25 4.5,-0.35 7.54,-0.35 3.1,0 5.7,0.1 7.75,0.35 2.05,0.25 3.65,0.6 4.75,1.1 1.15,0.5 1.95,1.09 2.4,1.84 0.5,0.7 0.75,1.6 0.75,2.55l0 16.25c3.4,-4.85 6.64,-8.9 9.64,-12.05 3.05,-3.2 5.95,-5.7 8.65,-7.55 2.75,-1.84 5.5,-3.14 8.19,-3.89 2.75,-0.75 5.5,-1.1 8.2,-1.1 1.3,0 2.65,0.1 4.1,0.25 1.5,0.1 3,0.35 4.55,0.7 1.55,0.35 2.95,0.75 4.09,1.2 1.2,0.4 2.05,0.9 2.6,1.35 0.5,0.5 0.9,1.05 1.15,1.64 0.25,0.55 0.45,1.35 0.65,2.4 0.2,1 0.35,2.55 0.45,4.6 0.1,2.05 0.15,4.85 0.15,8.35zm59.57 118.44c0,1 -0.25,1.85 -0.85,2.6 -0.6,0.7 -1.59,1.35 -2.99,1.8 -1.45,0.5 -3.3,0.85 -5.65,1.1 -2.35,0.25 -5.3,0.4 -8.95,0.4 -3.6,0 -6.59,-0.15 -8.89,-0.4 -2.35,-0.25 -4.25,-0.6 -5.65,-1.1 -1.45,-0.45 -2.45,-1.1 -3,-1.8 -0.6,-0.75 -0.9,-1.6 -0.9,-2.6l0 -130.29c0,-1 0.3,-1.85 0.9,-2.55 0.55,-0.75 1.55,-1.39 3,-1.89 1.4,-0.55 3.3,-0.95 5.65,-1.25 2.3,-0.3 5.29,-0.45 8.89,-0.45 3.65,0 6.6,0.15 8.95,0.45 2.35,0.3 4.2,0.7 5.65,1.25 1.4,0.5 2.39,1.14 2.99,1.89 0.6,0.7 0.85,1.55 0.85,2.55l0 130.29zm2.8 -174.82c0,7.45 -1.5,12.55 -4.55,15.4 -2.99,2.85 -8.64,4.24 -16.84,4.24 -8.29,0 -13.84,-1.34 -16.74,-4.09 -2.9,-2.75 -4.35,-7.65 -4.35,-14.8 0,-7.39 1.5,-12.54 4.5,-15.44 2.95,-2.9 8.6,-4.35 16.89,-4.35 8.2,0 13.8,1.4 16.69,4.2 2.95,2.8 4.4,7.75 4.4,14.84zm158.73 174.82c0,1 -0.3,1.85 -0.85,2.6 -0.6,0.7 -1.6,1.35 -2.95,1.8 -1.34,0.5 -3.24,0.85 -5.64,1.1 -2.4,0.25 -5.35,0.4 -8.85,0.4 -3.6,0 -6.6,-0.15 -8.99,-0.4 -2.4,-0.25 -4.3,-0.6 -5.65,-1.1 -1.35,-0.45 -2.35,-1.1 -2.95,-1.8 -0.55,-0.75 -0.85,-1.6 -0.85,-2.6l0 -74.51c0,-6.35 -0.45,-11.3 -1.4,-14.95 -0.95,-3.59 -2.25,-6.69 -4.05,-9.29 -1.75,-2.55 -4,-4.55 -6.79,-6 -2.75,-1.4 -6,-2.1 -9.75,-2.1 -4.65,0 -9.4,1.7 -14.19,5.1 -4.75,3.45 -9.75,8.4 -14.95,14.94l0 86.81c0,1 -0.25,1.85 -0.85,2.6 -0.6,0.7 -1.59,1.35 -2.99,1.8 -1.45,0.5 -3.3,0.85 -5.65,1.1 -2.35,0.25 -5.3,0.4 -8.95,0.4 -3.6,0 -6.59,-0.15 -8.89,-0.4 -2.35,-0.25 -4.25,-0.6 -5.65,-1.1 -1.45,-0.45 -2.45,-1.1 -3,-1.8 -0.6,-0.75 -0.9,-1.6 -0.9,-2.6l0 -130.59c0,-0.95 0.25,-1.85 0.75,-2.55 0.5,-0.75 1.35,-1.34 2.65,-1.84 1.25,-0.5 2.9,-0.85 4.9,-1.1 2,-0.25 4.5,-0.35 7.54,-0.35 3.1,0 5.7,0.1 7.75,0.35 2.05,0.25 3.65,0.6 4.75,1.1 1.15,0.5 1.95,1.09 2.4,1.84 0.5,0.7 0.75,1.6 0.75,2.55l0 15.1c7.24,-7.8 14.59,-13.7 22.04,-17.6 7.44,-3.89 15.24,-5.84 23.34,-5.84 8.89,0 16.39,1.45 22.49,4.4 6.09,2.94 11.04,6.89 14.79,11.94 3.75,5 6.45,10.89 8.09,17.64 1.7,6.75 2.5,14.84 2.5,24.29l0 80.66zm110.7 -12.84c0,4.3 -0.25,7.54 -0.8,9.84 -0.55,2.3 -1.25,3.9 -2.15,4.85 -0.85,0.95 -2.15,1.75 -3.85,2.5 -1.7,0.7 -3.7,1.35 -6,1.9 -2.3,0.55 -4.8,0.95 -7.5,1.25 -2.64,0.3 -5.39,0.45 -8.09,0.45 -7.35,0 -13.7,-0.95 -19.04,-2.8 -5.4,-1.85 -9.8,-4.7 -13.35,-8.55 -3.49,-3.89 -6.09,-8.74 -7.74,-14.59 -1.65,-5.85 -2.5,-12.79 -2.5,-20.79l0 -66.92 -15.64 0c-1.85,0 -3.3,-1.15 -4.25,-3.45 -1,-2.3 -1.5,-6.09 -1.5,-11.49 0,-2.8 0.15,-5.2 0.4,-7.15 0.25,-1.95 0.6,-3.5 1.1,-4.65 0.45,-1.1 1.1,-1.89 1.8,-2.39 0.75,-0.5 1.6,-0.75 2.6,-0.75l15.49 0 0 -29.14c0,-0.95 0.25,-1.85 0.8,-2.6 0.55,-0.8 1.55,-1.45 2.95,-2 1.4,-0.55 3.3,-0.9 5.69,-1.15 2.4,-0.25 5.35,-0.4 8.85,-0.4 3.65,0 6.65,0.15 9.05,0.4 2.34,0.25 4.24,0.6 5.59,1.15 1.4,0.55 2.35,1.2 2.95,2 0.6,0.75 0.85,1.65 0.85,2.6l0 29.14 28.44 0c0.95,0 1.8,0.25 2.55,0.75 0.75,0.5 1.35,1.29 1.85,2.39 0.45,1.15 0.85,2.7 1.1,4.65 0.25,1.95 0.35,4.35 0.35,7.15 0,5.4 -0.5,9.19 -1.45,11.49 -1,2.3 -2.4,3.45 -4.25,3.45l-28.59 0 0 61.37c0,7.1 1.15,12.45 3.4,16 2.25,3.59 6.25,5.34 11.99,5.34 1.95,0 3.7,-0.15 5.3,-0.5 1.55,-0.35 2.95,-0.7 4.15,-1.15 1.2,-0.45 2.25,-0.85 3.1,-1.2 0.8,-0.35 1.55,-0.5 2.25,-0.5 0.6,0 1.15,0.15 1.7,0.5 0.5,0.35 0.95,1.05 1.25,2.05 0.25,1.05 0.55,2.45 0.8,4.2 0.25,1.75 0.35,4 0.35,6.75zm63.51 12.84c0,1 -0.25,1.85 -0.85,2.6 -0.6,0.7 -1.59,1.35 -2.99,1.8 -1.45,0.5 -3.3,0.85 -5.65,1.1 -2.35,0.25 -5.3,0.4 -8.95,0.4 -3.6,0 -6.59,-0.15 -8.89,-0.4 -2.35,-0.25 -4.25,-0.6 -5.65,-1.1 -1.45,-0.45 -2.45,-1.1 -3,-1.8 -0.6,-0.75 -0.9,-1.6 -0.9,-2.6l0 -130.29c0,-1 0.3,-1.85 0.9,-2.55 0.55,-0.75 1.55,-1.39 3,-1.89 1.4,-0.55 3.3,-0.95 5.65,-1.25 2.3,-0.3 5.29,-0.45 8.89,-0.45 3.65,0 6.6,0.15 8.95,0.45 2.35,0.3 4.2,0.7 5.65,1.25 1.4,0.5 2.39,1.14 2.99,1.89 0.6,0.7 0.85,1.55 0.85,2.55l0 130.29zm2.8 -174.82c0,7.45 -1.5,12.55 -4.55,15.4 -2.99,2.85 -8.64,4.24 -16.84,4.24 -8.29,0 -13.84,-1.34 -16.74,-4.09 -2.9,-2.75 -4.35,-7.65 -4.35,-14.8 0,-7.39 1.5,-12.54 4.5,-15.44 2.95,-2.9 8.6,-4.35 16.89,-4.35 8.2,0 13.8,1.4 16.69,4.2 2.95,2.8 4.4,7.75 4.4,14.84zm158.73 174.82c0,1 -0.3,1.85 -0.85,2.6 -0.6,0.7 -1.6,1.35 -2.95,1.8 -1.34,0.5 -3.24,0.85 -5.64,1.1 -2.4,0.25 -5.35,0.4 -8.85,0.4 -3.6,0 -6.6,-0.15 -8.99,-0.4 -2.4,-0.25 -4.3,-0.6 -5.65,-1.1 -1.35,-0.45 -2.35,-1.1 -2.95,-1.8 -0.55,-0.75 -0.85,-1.6 -0.85,-2.6l0 -74.51c0,-6.35 -0.45,-11.3 -1.4,-14.95 -0.95,-3.59 -2.25,-6.69 -4.05,-9.29 -1.75,-2.55 -4,-4.55 -6.79,-6 -2.75,-1.4 -6,-2.1 -9.75,-2.1 -4.65,0 -9.4,1.7 -14.19,5.1 -4.75,3.45 -9.75,8.4 -14.95,14.94l0 86.81c0,1 -0.25,1.85 -0.85,2.6 -0.6,0.7 -1.59,1.35 -2.99,1.8 -1.45,0.5 -3.3,0.85 -5.65,1.1 -2.35,0.25 -5.3,0.4 -8.95,0.4 -3.6,0 -6.59,-0.15 -8.89,-0.4 -2.35,-0.25 -4.25,-0.6 -5.65,-1.1 -1.45,-0.45 -2.45,-1.1 -3,-1.8 -0.6,-0.75 -0.9,-1.6 -0.9,-2.6l0 -130.59c0,-0.95 0.25,-1.85 0.75,-2.55 0.5,-0.75 1.35,-1.34 2.65,-1.84 1.25,-0.5 2.9,-0.85 4.9,-1.1 2,-0.25 4.5,-0.35 7.54,-0.35 3.1,0 5.7,0.1 7.75,0.35 2.05,0.25 3.65,0.6 4.75,1.1 1.15,0.5 1.95,1.09 2.4,1.84 0.5,0.7 0.75,1.6 0.75,2.55l0 15.1c7.24,-7.8 14.59,-13.7 22.04,-17.6 7.44,-3.89 15.24,-5.84 23.34,-5.84 8.89,0 16.39,1.45 22.49,4.4 6.09,2.94 11.04,6.89 14.79,11.94 3.75,5 6.45,10.89 8.09,17.64 1.7,6.75 2.5,14.84 2.5,24.29l0 80.66z"/>
    <path class="fil0" d="M2593.37 1809.66c0,4.65 -0.55,8.15 -1.65,10.39 -1.05,2.25 -2.35,3.35 -3.95,3.35l-15.34 0c2.15,2.35 3.64,5 4.59,8 0.95,2.95 1.4,6.05 1.4,9.29 0,7.6 -1.3,14.35 -3.79,20.3 -2.55,5.89 -6.2,10.84 -10.95,14.89 -4.7,4.05 -10.44,7.14 -17.09,9.24 -6.7,2.1 -14.15,3.15 -22.34,3.15 -4.2,0 -8.2,-0.5 -12,-1.55 -3.84,-1 -6.74,-2.2 -8.79,-3.6 -1.2,1.3 -2.25,2.8 -3.15,4.55 -0.95,1.75 -1.4,3.7 -1.4,5.85 0,2.85 1.25,5.15 3.75,7 2.45,1.8 5.95,2.8 10.44,3l31.79 1.14c7.4,0.3 14.04,1.35 19.84,3.15 5.8,1.8 10.69,4.35 14.64,7.6 3.95,3.3 6.95,7.2 9.05,11.79 2.1,4.6 3.15,9.85 3.15,15.7 0,6.44 -1.4,12.49 -4.25,18.24 -2.8,5.7 -7.05,10.64 -12.69,14.84 -5.7,4.2 -12.8,7.5 -21.34,9.95 -8.55,2.45 -18.5,3.65 -29.94,3.65 -11.1,0 -20.59,-0.85 -28.49,-2.6 -7.84,-1.8 -14.29,-4.2 -19.29,-7.35 -5.05,-3.1 -8.69,-6.85 -10.99,-11.2 -2.3,-4.34 -3.45,-9.09 -3.45,-14.29 0,-3.2 0.4,-6.3 1.25,-9.19 0.85,-2.95 2.05,-5.75 3.65,-8.45 1.6,-2.65 3.59,-5.25 5.94,-7.65 2.35,-2.45 5,-4.79 8.05,-7.04 -4.2,-2.25 -7.45,-5.3 -9.75,-9.15 -2.3,-3.85 -3.44,-8.1 -3.44,-12.69 0,-5.75 1.34,-11 3.94,-15.75 2.65,-4.69 6.1,-8.99 10.3,-12.79 -3.45,-3.4 -6.2,-7.5 -8.25,-12.29 -2.05,-4.8 -3.05,-10.75 -3.05,-17.85 0,-7.64 1.35,-14.44 4.05,-20.44 2.65,-5.99 6.4,-11.09 11.2,-15.24 4.74,-4.15 10.49,-7.3 17.09,-9.49 6.65,-2.2 13.99,-3.3 21.99,-3.3 4.1,0 8.05,0.25 11.79,0.7 3.75,0.5 7.25,1.2 10.45,2.05l41.43 0c1.65,0 3,1.1 4.05,3.24 1,2.15 1.55,5.75 1.55,10.85zm-47.33 30.88c0,-7.04 -1.95,-12.49 -5.85,-16.39 -3.9,-3.9 -9.39,-5.84 -16.54,-5.84 -3.6,0 -6.8,0.59 -9.5,1.79 -2.75,1.25 -4.99,2.9 -6.84,5 -1.8,2.1 -3.15,4.55 -4,7.3 -0.9,2.8 -1.35,5.7 -1.35,8.74 0,6.6 2,11.85 5.9,15.75 3.89,3.85 9.29,5.74 16.24,5.74 3.7,0 6.95,-0.55 9.64,-1.74 2.75,-1.15 5,-2.8 6.8,-4.85 1.85,-2.05 3.2,-4.4 4.1,-7.1 0.95,-2.65 1.4,-5.5 1.4,-8.4zm8.64 104.26c0,-4.4 -1.74,-7.75 -5.24,-10.1 -3.55,-2.35 -8.35,-3.65 -14.5,-3.8l-26.23 -0.75c-2.55,1.85 -4.55,3.65 -6.05,5.35 -1.55,1.7 -2.75,3.35 -3.7,4.9 -0.9,1.55 -1.5,3.05 -1.8,4.55 -0.3,1.45 -0.45,2.94 -0.45,4.54 0,4.85 2.45,8.55 7.4,11.1 4.95,2.55 11.89,3.8 20.84,3.8 5.6,0 10.29,-0.55 14.09,-1.65 3.8,-1.15 6.85,-2.65 9.2,-4.5 2.35,-1.85 4,-3.9 5,-6.2 0.94,-2.3 1.44,-4.7 1.44,-7.24zm195.61 -82.32c0,5.7 -0.55,9.65 -1.6,11.9 -1.1,2.25 -2.8,3.35 -5.15,3.35l-60.87 0c-2.45,0 -4.2,-1.15 -5.29,-3.45 -1.05,-2.3 -1.6,-6.2 -1.6,-11.8 0,-5.44 0.55,-9.29 1.6,-11.54 1.09,-2.25 2.84,-3.35 5.29,-3.35l60.87 0c1.2,0 2.2,0.2 3,0.7 0.85,0.5 1.55,1.35 2.15,2.5 0.6,1.15 1,2.75 1.25,4.7 0.25,1.95 0.35,4.3 0.35,6.99zm317.86 68.42c0,0.95 -0.25,1.85 -0.8,2.6 -0.55,0.8 -1.5,1.45 -2.95,1.9 -1.4,0.5 -3.3,0.9 -5.6,1.2 -2.35,0.3 -5.35,0.45 -8.94,0.45 -3.5,0 -6.45,-0.15 -8.8,-0.45 -2.35,-0.3 -4.2,-0.7 -5.55,-1.2 -1.4,-0.45 -2.35,-1.1 -2.95,-1.9 -0.6,-0.75 -0.85,-1.65 -0.85,-2.6l0 -154.18 -0.3 0 -54.92 154.03c-0.4,1.25 -1,2.3 -1.9,3.15 -0.9,0.8 -2.1,1.45 -3.6,1.95 -1.5,0.5 -3.45,0.8 -5.79,0.95 -2.3,0.15 -5.15,0.25 -8.45,0.25 -3.35,0 -6.15,-0.15 -8.5,-0.4 -2.35,-0.25 -4.29,-0.6 -5.79,-1.15 -1.5,-0.55 -2.7,-1.2 -3.6,-2 -0.85,-0.75 -1.45,-1.7 -1.75,-2.75l-53.03 -154.03 -0.25 0 0 154.18c0,0.95 -0.3,1.85 -0.85,2.6 -0.5,0.8 -1.5,1.45 -2.99,1.9 -1.45,0.5 -3.3,0.9 -5.6,1.2 -2.3,0.3 -5.25,0.45 -8.9,0.45 -3.5,0 -6.45,-0.15 -8.74,-0.45 -2.35,-0.3 -4.25,-0.7 -5.65,-1.2 -1.45,-0.45 -2.4,-1.1 -2.95,-1.9 -0.55,-0.75 -0.8,-1.65 -0.8,-2.6l0 -168.82c0,-5 1.3,-8.79 3.95,-11.44 2.65,-2.65 6.15,-3.95 10.54,-3.95l25.19 0c4.5,0 8.35,0.35 11.55,1.1 3.24,0.75 6.04,1.95 8.34,3.65 2.35,1.7 4.3,3.94 5.9,6.74 1.55,2.8 2.9,6.2 4.1,10.3l40.98 112.9 0.6 0 42.43 -112.6c1.3,-4.1 2.7,-7.55 4.2,-10.4 1.5,-2.8 3.25,-5.09 5.24,-6.84 2,-1.8 4.4,-3 7.1,-3.75 2.75,-0.75 5.95,-1.1 9.55,-1.1l25.88 0c2.65,0 4.95,0.35 6.85,1 1.9,0.7 3.45,1.7 4.65,3.05 1.25,1.3 2.15,2.9 2.8,4.79 0.65,1.9 0.95,4.1 0.95,6.55l0 168.82zm159.73 -68.82c0,4.45 -1,7.8 -3,9.95 -2,2.15 -4.75,3.2 -8.25,3.2l-79.51 0c0,5.6 0.65,10.64 1.95,15.14 1.35,4.55 3.44,8.4 6.29,11.6 2.9,3.14 6.6,5.59 11.15,7.24 4.55,1.65 9.99,2.5 16.34,2.5 6.45,0 12.1,-0.5 16.94,-1.4 4.9,-0.95 9.15,-1.95 12.7,-3.1 3.55,-1.1 6.49,-2.15 8.84,-3.05 2.35,-0.94 4.25,-1.39 5.7,-1.39 0.9,0 1.65,0.15 2.2,0.5 0.6,0.35 1.1,0.94 1.5,1.84 0.35,0.85 0.65,2.1 0.8,3.75 0.15,1.6 0.2,3.6 0.2,6.05 0,2.15 -0.05,4 -0.15,5.5 -0.1,1.5 -0.25,2.8 -0.45,3.9 -0.15,1.05 -0.45,1.94 -0.85,2.69 -0.4,0.75 -0.9,1.45 -1.55,2.1 -0.65,0.7 -2.35,1.65 -5.2,2.8 -2.85,1.15 -6.45,2.3 -10.84,3.45 -4.4,1.1 -9.4,2.1 -15.05,2.9 -5.69,0.85 -11.74,1.25 -18.19,1.25 -11.59,0 -21.79,-1.45 -30.53,-4.4 -8.7,-2.9 -16,-7.35 -21.89,-13.29 -5.85,-5.95 -10.2,-13.5 -13.1,-22.54 -2.85,-9.1 -4.3,-19.74 -4.3,-31.94 0,-11.59 1.5,-22.09 4.55,-31.38 3,-9.35 7.4,-17.25 13.15,-23.74 5.79,-6.5 12.79,-11.45 21.04,-14.85 8.24,-3.44 17.54,-5.14 27.88,-5.14 10.95,0 20.29,1.6 28.04,4.84 7.75,3.2 14.14,7.7 19.09,13.4 5,5.7 8.65,12.44 11,20.29 2.35,7.8 3.5,16.29 3.5,25.44l0 5.89zm-35.74 -10.54c0.3,-10.35 -1.75,-18.49 -6.2,-24.39 -4.44,-5.9 -11.29,-8.84 -20.59,-8.84 -4.69,0 -8.74,0.84 -12.19,2.59 -3.5,1.75 -6.35,4.15 -8.65,7.1 -2.29,3 -4.04,6.5 -5.29,10.55 -1.2,4.04 -1.9,8.39 -2.1,12.99l55.02 0zm149.98 -38.83c0,3.55 -0.1,6.39 -0.3,8.64 -0.2,2.25 -0.5,4 -0.9,5.3 -0.35,1.25 -0.9,2.15 -1.5,2.6 -0.65,0.5 -1.45,0.75 -2.45,0.75 -0.75,0 -1.64,-0.15 -2.59,-0.5 -1,-0.35 -2.1,-0.7 -3.3,-1.1 -1.25,-0.4 -2.6,-0.75 -4.05,-1.1 -1.45,-0.35 -3.05,-0.5 -4.85,-0.5 -2.05,0 -4.1,0.4 -6.15,1.2 -2.04,0.85 -4.14,2.15 -6.34,3.9 -2.2,1.75 -4.5,4.1 -6.9,7.05 -2.4,2.89 -4.95,6.54 -7.7,10.79l0 81.41c0,1 -0.25,1.85 -0.85,2.6 -0.6,0.7 -1.59,1.35 -2.99,1.8 -1.45,0.5 -3.3,0.85 -5.65,1.1 -2.35,0.25 -5.3,0.4 -8.95,0.4 -3.6,0 -6.59,-0.15 -8.89,-0.4 -2.35,-0.25 -4.25,-0.6 -5.65,-1.1 -1.45,-0.45 -2.45,-1.1 -3,-1.8 -0.6,-0.75 -0.9,-1.6 -0.9,-2.6l0 -130.59c0,-0.95 0.25,-1.85 0.75,-2.55 0.5,-0.75 1.35,-1.34 2.65,-1.84 1.25,-0.5 2.9,-0.85 4.9,-1.1 2,-0.25 4.5,-0.35 7.54,-0.35 3.1,0 5.7,0.1 7.75,0.35 2.05,0.25 3.65,0.6 4.75,1.1 1.15,0.5 1.95,1.09 2.4,1.84 0.5,0.7 0.75,1.6 0.75,2.55l0 16.25c3.4,-4.85 6.64,-8.9 9.64,-12.05 3.05,-3.2 5.95,-5.7 8.65,-7.55 2.75,-1.84 5.5,-3.14 8.19,-3.89 2.75,-0.75 5.5,-1.1 8.2,-1.1 1.3,0 2.65,0.1 4.1,0.25 1.5,0.1 3,0.35 4.55,0.7 1.55,0.35 2.95,0.75 4.09,1.2 1.2,0.4 2.05,0.9 2.6,1.35 0.5,0.5 0.9,1.05 1.15,1.64 0.25,0.55 0.45,1.35 0.65,2.4 0.2,1 0.35,2.55 0.45,4.6 0.1,2.05 0.15,4.85 0.15,8.35zm117.3 97.65c0,2.55 -0.1,4.7 -0.25,6.4 -0.15,1.7 -0.35,3.15 -0.55,4.3 -0.25,1.2 -0.55,2.15 -0.9,2.85 -0.35,0.75 -1.1,1.69 -2.25,2.79 -1.2,1.1 -3.2,2.5 -6.05,4.1 -2.8,1.6 -6.05,3.05 -9.65,4.3 -3.59,1.3 -7.54,2.3 -11.79,3.1 -4.25,0.8 -8.6,1.15 -13.09,1.15 -10.05,0 -18.95,-1.55 -26.74,-4.65 -7.75,-3.15 -14.24,-7.75 -19.54,-13.84 -5.25,-6.1 -9.25,-13.55 -11.9,-22.34 -2.7,-8.8 -4.04,-18.84 -4.04,-30.14 0,-13.09 1.64,-24.39 4.89,-33.93 3.3,-9.5 7.85,-17.39 13.7,-23.64 5.84,-6.25 12.79,-10.9 20.79,-13.89 7.99,-3.05 16.79,-4.55 26.33,-4.55 3.95,0 7.75,0.35 11.5,1.05 3.8,0.65 7.3,1.6 10.54,2.75 3.3,1.19 6.2,2.49 8.8,3.94 2.6,1.5 4.4,2.75 5.5,3.8 1.05,1.1 1.85,2 2.25,2.75 0.45,0.7 0.8,1.65 1.05,2.85 0.25,1.15 0.45,2.6 0.6,4.3 0.15,1.7 0.2,3.8 0.2,6.24 0,5.65 -0.5,9.65 -1.45,11.95 -1,2.25 -2.25,3.4 -3.8,3.4 -1.7,0 -3.45,-0.65 -5.3,-2.05 -1.85,-1.35 -4.05,-2.85 -6.6,-4.5 -2.55,-1.7 -5.54,-3.2 -9.04,-4.55 -3.55,-1.4 -7.75,-2.05 -12.6,-2.05 -9.59,0 -16.89,3.65 -21.99,11.05 -5.04,7.34 -7.59,18.19 -7.59,32.43 0,7 0.6,13.2 1.9,18.59 1.25,5.35 3.15,9.85 5.64,13.45 2.45,3.65 5.6,6.34 9.35,8.14 3.75,1.8 8.15,2.7 13.09,2.7 5.1,0 9.45,-0.75 13.15,-2.25 3.65,-1.5 6.84,-3.19 9.54,-5.04 2.75,-1.85 5.05,-3.55 6.9,-5.05 1.85,-1.55 3.45,-2.3 4.7,-2.3 0.9,0 1.6,0.25 2.2,0.75 0.6,0.5 1.05,1.4 1.4,2.7 0.35,1.3 0.6,3 0.8,5.05 0.2,2.04 0.3,4.69 0.3,7.89zm151.37 20.79c0,1 -0.3,1.85 -0.85,2.6 -0.6,0.7 -1.6,1.35 -2.95,1.8 -1.34,0.5 -3.24,0.85 -5.64,1.1 -2.4,0.25 -5.35,0.4 -8.85,0.4 -3.6,0 -6.6,-0.15 -8.99,-0.4 -2.4,-0.25 -4.3,-0.6 -5.65,-1.1 -1.35,-0.45 -2.35,-1.1 -2.95,-1.8 -0.55,-0.75 -0.85,-1.6 -0.85,-2.6l0 -74.51c0,-6.35 -0.45,-11.3 -1.4,-14.95 -0.95,-3.59 -2.25,-6.69 -4.05,-9.29 -1.75,-2.55 -4,-4.55 -6.79,-6 -2.75,-1.4 -6,-2.1 -9.75,-2.1 -4.65,0 -9.4,1.7 -14.19,5.1 -4.75,3.45 -9.75,8.4 -14.95,14.94l0 86.81c0,1 -0.25,1.85 -0.85,2.6 -0.6,0.7 -1.59,1.35 -2.99,1.8 -1.45,0.5 -3.3,0.85 -5.65,1.1 -2.35,0.25 -5.3,0.4 -8.95,0.4 -3.6,0 -6.59,-0.15 -8.89,-0.4 -2.35,-0.25 -4.25,-0.6 -5.65,-1.1 -1.45,-0.45 -2.45,-1.1 -3,-1.8 -0.6,-0.75 -0.9,-1.6 -0.9,-2.6l0 -192.51c0,-1 0.3,-1.85 0.9,-2.65 0.55,-0.8 1.55,-1.45 3,-1.95 1.4,-0.55 3.3,-0.95 5.65,-1.25 2.3,-0.29 5.29,-0.44 8.89,-0.44 3.65,0 6.6,0.15 8.95,0.44 2.35,0.3 4.2,0.7 5.65,1.25 1.4,0.5 2.39,1.15 2.99,1.95 0.6,0.8 0.85,1.65 0.85,2.65l0 72.17c6.35,-6.25 12.85,-10.9 19.45,-13.99 6.54,-3.05 13.44,-4.6 20.54,-4.6 8.89,0 16.39,1.45 22.49,4.4 6.09,2.94 11.04,6.94 14.79,11.99 3.75,5.1 6.45,10.99 8.09,17.79 1.7,6.8 2.5,14.99 2.5,24.69l0 80.06zm147.48 0.45c0,1.4 -0.5,2.45 -1.5,3.25 -0.95,0.75 -2.5,1.3 -4.6,1.65 -2.1,0.35 -5.2,0.55 -9.29,0.55 -4.4,0 -7.6,-0.2 -9.6,-0.55 -2,-0.35 -3.4,-0.9 -4.25,-1.65 -0.8,-0.8 -1.25,-1.85 -1.25,-3.25l0 -10.39c-5.34,5.74 -11.49,10.24 -18.34,13.49 -6.89,3.2 -14.54,4.8 -22.94,4.8 -6.94,0 -13.29,-0.9 -19.09,-2.7 -5.8,-1.8 -10.84,-4.5 -15.09,-8.05 -4.25,-3.54 -7.55,-7.99 -9.9,-13.24 -2.35,-5.3 -3.49,-11.45 -3.49,-18.44 0,-7.65 1.49,-14.25 4.44,-19.84 3,-5.65 7.45,-10.25 13.35,-13.95 5.89,-3.64 13.24,-6.34 22.04,-8.09 8.79,-1.75 18.99,-2.65 30.58,-2.65l12.75 0 0 -7.9c0,-4.1 -0.4,-7.69 -1.25,-10.74 -0.8,-3.1 -2.2,-5.65 -4.1,-7.7 -1.9,-2.05 -4.45,-3.55 -7.6,-4.55 -3.2,-1 -7.09,-1.45 -11.79,-1.45 -6.15,0 -11.65,0.65 -16.49,2.05 -4.8,1.35 -9.1,2.85 -12.8,4.55 -3.7,1.65 -6.8,3.15 -9.29,4.5 -2.5,1.4 -4.5,2.05 -6.1,2.05 -1.05,0 -2,-0.3 -2.85,-1 -0.8,-0.7 -1.5,-1.65 -2.05,-2.95 -0.5,-1.25 -0.95,-2.8 -1.25,-4.65 -0.3,-1.9 -0.4,-3.95 -0.4,-6.2 0,-2.99 0.2,-5.39 0.7,-7.14 0.5,-1.75 1.45,-3.35 2.8,-4.75 1.35,-1.45 3.75,-3 7.15,-4.7 3.45,-1.7 7.44,-3.3 12.04,-4.75 4.55,-1.49 9.6,-2.64 14.99,-3.59 5.4,-0.95 11,-1.4 16.75,-1.4 10.24,0 19.04,1 26.28,3 7.3,1.99 13.25,5.09 17.95,9.24 4.69,4.15 8.09,9.5 10.24,16.04 2.15,6.5 3.25,14.3 3.25,23.24l0 87.86zm-36.18 -55.92l-14.05 0c-5.94,0 -11.04,0.45 -15.24,1.3 -4.2,0.9 -7.6,2.2 -10.25,3.95 -2.64,1.79 -4.54,3.89 -5.79,6.39 -1.2,2.5 -1.8,5.35 -1.8,8.55 0,5.5 1.7,9.79 5.2,12.89 3.44,3.15 8.24,4.7 14.39,4.7 5.2,0 9.94,-1.3 14.29,-3.95 4.35,-2.65 8.75,-6.49 13.25,-11.59l0 -22.24zm197.65 55.47c0,1 -0.3,1.85 -0.85,2.6 -0.6,0.7 -1.6,1.35 -2.95,1.8 -1.34,0.5 -3.24,0.85 -5.64,1.1 -2.4,0.25 -5.35,0.4 -8.85,0.4 -3.6,0 -6.6,-0.15 -8.99,-0.4 -2.4,-0.25 -4.3,-0.6 -5.65,-1.1 -1.35,-0.45 -2.35,-1.1 -2.95,-1.8 -0.55,-0.75 -0.85,-1.6 -0.85,-2.6l0 -74.51c0,-6.35 -0.45,-11.3 -1.4,-14.95 -0.95,-3.59 -2.25,-6.69 -4.05,-9.29 -1.75,-2.55 -4,-4.55 -6.79,-6 -2.75,-1.4 -6,-2.1 -9.75,-2.1 -4.65,0 -9.4,1.7 -14.19,5.1 -4.75,3.45 -9.75,8.4 -14.95,14.94l0 86.81c0,1 -0.25,1.85 -0.85,2.6 -0.6,0.7 -1.59,1.35 -2.99,1.8 -1.45,0.5 -3.3,0.85 -5.65,1.1 -2.35,0.25 -5.3,0.4 -8.95,0.4 -3.6,0 -6.59,-0.15 -8.89,-0.4 -2.35,-0.25 -4.25,-0.6 -5.65,-1.1 -1.45,-0.45 -2.45,-1.1 -3,-1.8 -0.6,-0.75 -0.9,-1.6 -0.9,-2.6l0 -130.59c0,-0.95 0.25,-1.85 0.75,-2.55 0.5,-0.75 1.35,-1.34 2.65,-1.84 1.25,-0.5 2.9,-0.85 4.9,-1.1 2,-0.25 4.5,-0.35 7.54,-0.35 3.1,0 5.7,0.1 7.75,0.35 2.05,0.25 3.65,0.6 4.75,1.1 1.15,0.5 1.95,1.09 2.4,1.84 0.5,0.7 0.75,1.6 0.75,2.55l0 15.1c7.24,-7.8 14.59,-13.7 22.04,-17.6 7.44,-3.89 15.24,-5.84 23.34,-5.84 8.89,0 16.39,1.45 22.49,4.4 6.09,2.94 11.04,6.89 14.79,11.94 3.75,5 6.45,10.89 8.09,17.64 1.7,6.75 2.5,14.84 2.5,24.29l0 80.66zm160.07 0c0,1.1 -0.25,2 -0.75,2.75 -0.5,0.7 -1.3,1.3 -2.49,1.8 -1.15,0.5 -2.75,0.85 -4.75,1.05 -2,0.2 -4.45,0.3 -7.4,0.3 -3.1,0 -5.65,-0.1 -7.6,-0.3 -1.94,-0.2 -3.54,-0.55 -4.79,-1.05 -1.2,-0.5 -2.1,-1.1 -2.6,-1.8 -0.55,-0.75 -0.8,-1.65 -0.8,-2.75l0 -14.49c-6.75,7.25 -13.8,12.84 -21.19,16.84 -7.35,4 -15.54,6 -24.49,6 -10,0 -18.39,-1.9 -25.29,-5.75 -6.85,-3.85 -12.49,-9.04 -16.84,-15.59 -4.35,-6.55 -7.5,-14.19 -9.45,-22.94 -1.95,-8.75 -2.9,-17.94 -2.9,-27.59 0,-11.64 1.25,-22.09 3.7,-31.33 2.5,-9.3 6.15,-17.2 10.95,-23.74 4.75,-6.55 10.74,-11.55 17.84,-15.05 7.15,-3.54 15.34,-5.29 24.59,-5.29 7.34,0 13.99,1.5 19.94,4.45 5.95,2.99 11.84,7.34 17.69,13.14l0 -70.72c0,-1 0.3,-1.85 0.8,-2.65 0.55,-0.8 1.55,-1.45 2.95,-2 1.4,-0.5 3.3,-0.95 5.65,-1.25 2.35,-0.25 5.29,-0.4 8.89,-0.4 3.65,0 6.6,0.15 8.95,0.4 2.35,0.3 4.2,0.75 5.55,1.25 1.39,0.55 2.34,1.2 2.94,2 0.6,0.8 0.9,1.65 0.9,2.65l0 192.06zm-36.63 -87.26c-5.25,-6.64 -10.29,-11.69 -15.14,-15.19 -4.85,-3.55 -9.9,-5.3 -15.15,-5.3 -4.79,0 -8.89,1.2 -12.39,3.6 -3.45,2.4 -6.25,5.6 -8.35,9.6 -2.09,3.99 -3.64,8.44 -4.69,13.39 -1,4.95 -1.5,10 -1.5,15.14 0,5.45 0.45,10.8 1.3,15.95 0.9,5.19 2.3,9.79 4.34,13.84 2,4.05 4.65,7.3 7.95,9.74 3.35,2.45 7.55,3.65 12.6,3.65 2.54,0 4.99,-0.35 7.39,-1.1 2.4,-0.7 4.85,-1.9 7.35,-3.54 2.45,-1.7 5.05,-3.85 7.64,-6.55 2.65,-2.65 5.55,-5.95 8.65,-9.9l0 -43.33zm110.54 87.26c0,1 -0.25,1.85 -0.85,2.6 -0.6,0.7 -1.59,1.35 -2.99,1.8 -1.45,0.5 -3.3,0.85 -5.65,1.1 -2.35,0.25 -5.3,0.4 -8.95,0.4 -3.6,0 -6.59,-0.15 -8.89,-0.4 -2.35,-0.25 -4.25,-0.6 -5.65,-1.1 -1.45,-0.45 -2.45,-1.1 -3,-1.8 -0.6,-0.75 -0.9,-1.6 -0.9,-2.6l0 -130.29c0,-1 0.3,-1.85 0.9,-2.55 0.55,-0.75 1.55,-1.39 3,-1.89 1.4,-0.55 3.3,-0.95 5.65,-1.25 2.3,-0.3 5.29,-0.45 8.89,-0.45 3.65,0 6.6,0.15 8.95,0.45 2.35,0.3 4.2,0.7 5.65,1.25 1.4,0.5 2.39,1.14 2.99,1.89 0.6,0.7 0.85,1.55 0.85,2.55l0 130.29zm2.8 -174.82c0,7.45 -1.5,12.55 -4.55,15.4 -2.99,2.85 -8.64,4.24 -16.84,4.24 -8.29,0 -13.84,-1.34 -16.74,-4.09 -2.9,-2.75 -4.35,-7.65 -4.35,-14.8 0,-7.39 1.5,-12.54 4.5,-15.44 2.95,-2.9 8.6,-4.35 16.89,-4.35 8.2,0 13.8,1.4 16.69,4.2 2.95,2.8 4.4,7.75 4.4,14.84zm125.95 137.94c0,7.45 -1.4,13.94 -4.2,19.64 -2.75,5.65 -6.7,10.4 -11.74,14.19 -5.1,3.8 -11.1,6.65 -18.05,8.55 -6.89,1.9 -14.44,2.85 -22.54,2.85 -4.89,0 -9.54,-0.35 -13.99,-1.1 -4.45,-0.7 -8.39,-1.65 -11.89,-2.75 -3.55,-1.15 -6.45,-2.3 -8.8,-3.45 -2.35,-1.2 -4.05,-2.3 -5.15,-3.3 -1.05,-1.05 -1.9,-2.65 -2.5,-4.84 -0.55,-2.2 -0.84,-5.45 -0.84,-9.75 0,-2.8 0.09,-5.1 0.29,-6.8 0.2,-1.7 0.5,-3.05 0.85,-4.09 0.4,-1 0.9,-1.7 1.5,-2.05 0.55,-0.35 1.3,-0.5 2.2,-0.5 1.05,0 2.65,0.6 4.75,1.85 2.1,1.2 4.7,2.54 7.85,3.99 3.1,1.45 6.74,2.85 10.89,4.1 4.15,1.3 8.85,1.9 14.1,1.9 3.34,0 6.29,-0.35 8.89,-1 2.55,-0.7 4.8,-1.65 6.7,-2.95 1.95,-1.25 3.35,-2.85 4.35,-4.84 0.95,-1.95 1.45,-4.2 1.45,-6.7 0,-2.95 -0.9,-5.45 -2.7,-7.55 -1.8,-2.1 -4.2,-3.95 -7.2,-5.5 -2.95,-1.55 -6.3,-3.04 -10.1,-4.39 -3.74,-1.35 -7.59,-2.9 -11.54,-4.55 -3.95,-1.65 -7.8,-3.55 -11.59,-5.7 -3.75,-2.15 -7.1,-4.8 -10.1,-7.9 -2.95,-3.14 -5.35,-6.89 -7.15,-11.29 -1.8,-4.4 -2.7,-9.65 -2.7,-15.79 0,-6.25 1.2,-12 3.65,-17.19 2.45,-5.25 5.95,-9.7 10.55,-13.45 4.55,-3.7 10.14,-6.55 16.74,-8.59 6.6,-2.05 13.99,-3.1 22.19,-3.1 4.1,0 8.1,0.3 11.94,0.9 3.85,0.55 7.35,1.3 10.45,2.2 3.15,0.85 5.75,1.79 7.9,2.84 2.14,1 3.69,1.9 4.64,2.6 0.9,0.75 1.55,1.5 1.95,2.2 0.4,0.75 0.7,1.65 0.9,2.65 0.2,1.05 0.35,2.3 0.5,3.8 0.15,1.55 0.25,3.4 0.25,5.65 0,2.65 -0.1,4.79 -0.25,6.44 -0.15,1.65 -0.4,3 -0.75,3.95 -0.3,1 -0.8,1.65 -1.35,2 -0.6,0.35 -1.3,0.5 -2.05,0.5 -0.9,0 -2.25,-0.5 -4.09,-1.55 -1.9,-1 -4.2,-2.1 -7,-3.3 -2.75,-1.15 -6,-2.25 -9.65,-3.3 -3.64,-1 -7.84,-1.49 -12.49,-1.49 -3.35,0 -6.2,0.29 -8.65,0.99 -2.45,0.7 -4.44,1.65 -5.99,2.95 -1.6,1.25 -2.75,2.75 -3.55,4.45 -0.75,1.7 -1.15,3.55 -1.15,5.5 0,3 0.9,5.55 2.8,7.59 1.85,2.05 4.25,3.85 7.29,5.45 3.05,1.55 6.45,3 10.35,4.4 3.85,1.35 7.75,2.85 11.69,4.45 3.95,1.6 7.85,3.5 11.7,5.65 3.85,2.14 7.29,4.74 10.34,7.89 3,3.1 5.45,6.85 7.3,11.2 1.85,4.34 2.8,9.49 2.8,15.44z"/>
    <path class="fil0" d="M4430.8 1862.08c0,4.45 -1,7.8 -3,9.95 -2,2.15 -4.75,3.2 -8.25,3.2l-79.51 0c0,5.6 0.65,10.64 1.95,15.14 1.35,4.55 3.44,8.4 6.29,11.6 2.9,3.14 6.6,5.59 11.15,7.24 4.55,1.65 9.99,2.5 16.34,2.5 6.45,0 12.1,-0.5 16.94,-1.4 4.9,-0.95 9.15,-1.95 12.7,-3.1 3.55,-1.1 6.49,-2.15 8.84,-3.05 2.35,-0.94 4.25,-1.39 5.7,-1.39 0.9,0 1.65,0.15 2.2,0.5 0.6,0.35 1.1,0.94 1.5,1.84 0.35,0.85 0.65,2.1 0.8,3.75 0.15,1.6 0.2,3.6 0.2,6.05 0,2.15 -0.05,4 -0.15,5.5 -0.1,1.5 -0.25,2.8 -0.45,3.9 -0.15,1.05 -0.45,1.94 -0.85,2.69 -0.4,0.75 -0.9,1.45 -1.55,2.1 -0.65,0.7 -2.35,1.65 -5.2,2.8 -2.85,1.15 -6.45,2.3 -10.84,3.45 -4.4,1.1 -9.4,2.1 -15.05,2.9 -5.69,0.85 -11.74,1.25 -18.19,1.25 -11.59,0 -21.79,-1.45 -30.53,-4.4 -8.7,-2.9 -16,-7.35 -21.89,-13.29 -5.85,-5.95 -10.2,-13.5 -13.1,-22.54 -2.85,-9.1 -4.3,-19.74 -4.3,-31.94 0,-11.59 1.5,-22.09 4.55,-31.38 3,-9.35 7.4,-17.25 13.15,-23.74 5.79,-6.5 12.79,-11.45 21.04,-14.85 8.24,-3.44 17.54,-5.14 27.88,-5.14 10.95,0 20.29,1.6 28.04,4.84 7.75,3.2 14.14,7.7 19.09,13.4 5,5.7 8.65,12.44 11,20.29 2.35,7.8 3.5,16.29 3.5,25.44l0 5.89zm-35.74 -10.54c0.3,-10.35 -1.75,-18.49 -6.2,-24.39 -4.44,-5.9 -11.29,-8.84 -20.59,-8.84 -4.69,0 -8.74,0.84 -12.19,2.59 -3.5,1.75 -6.35,4.15 -8.65,7.1 -2.29,3 -4.04,6.5 -5.29,10.55 -1.2,4.04 -1.9,8.39 -2.1,12.99l55.02 0z"/>
   </g>
  </g>
 </g>
</svg>
